# xmcd CD database file
#
# Track frame offsets:
#	150
#	15331
#	29786
#	44932
#	57413
#	72277
#	89996
#	100804
#	119736
#	135122
#	151266
#	165411
#	179631
#	206466
#	219945
#	241635
#	255306
#	271986
#	286514
#	304280
#
# Disc length: 4363 seconds
#
# Revision: 1
# Processed by: cddbd v1.4PL0 Copyright (c) Steve Scherf et al.
# Submitted via: CDex 1.51
#
DISCID=1c110914
DTITLE=Danny Wright - Danny Wright
DYEAR=1999
DGENRE=New Age
TTITLE0=A Day In The Life
TTITLE1=Awakening
TTITLE2=Canon In D
TTITLE3=Cipolla
TTITLE4=Guardian Angel
TTITLE5=Interlude
TTITLE6=Julie's Day
TTITLE7=Memory - "Cats"
TTITLE8=New Beginning
TTITLE9=October
TTITLE10=Out Of Africa
TTITLE11=Over The Rinbow
TTITLE12=Phantom Of The Opera medley
TTITLE13=Shenandoah
TTITLE14=Somewhere In Time
TTITLE15=Somwhere My Love
TTITLE16=Tapestry Of Life
TTITLE17=Time Windows
TTITLE18=Unchained Melody
TTITLE19=My Heart Will Go On
EXTD=YEAR: 1999
EXTT0=
EXTT1=
EXTT2=
EXTT3=
EXTT4=
EXTT5=
EXTT6=
EXTT7=
EXTT8=
EXTT9=
EXTT10=
EXTT11=
EXTT12=
EXTT13=
EXTT14=
EXTT15=
EXTT16=
EXTT17=
EXTT18=
EXTT19=
PLAYORDER=
